<?xml version="1.0" encoding="UTF-8"?>
<svg width="16px" height="16px" viewBox="0 0 16 16" version="1.1" xmlns="http://www.w3.org/2000/svg">
    <title>Neue Sicht</title>
    <g id="Neue-Sicht">
        <path d="M13.1320755,7.0625 C14.7154088,7.0625 16,8.3922526 16,10.03125 C16,11.6702474 14.7154088,13 13.1320755,13 C11.5487421,13 10.2641509,11.6702474 10.2641509,10.03125 C10.2641509,8.3922526 11.5487421,7.0625 13.1320755,7.0625 Z M13.3710692,8.29947917 L12.8930818,8.29947917 C12.7623821,8.29947917 12.6540881,8.4115804 12.6540881,8.546875 L12.6540881,8.546875 L12.6540881,9.53645833 L11.6981132,9.53645833 C11.5674135,9.53645833 11.4591195,9.64855957 11.4591195,9.78385417 L11.4591195,9.78385417 L11.4591195,10.2786458 C11.4591195,10.4139404 11.5674135,10.5260417 11.6981132,10.5260417 L11.6981132,10.5260417 L12.6540881,10.5260417 L12.6540881,11.515625 C12.6540881,11.6509196 12.7623821,11.7630208 12.8930818,11.7630208 L12.8930818,11.7630208 L13.3710692,11.7630208 C13.5017689,11.7630208 13.6100629,11.6509196 13.6100629,11.515625 L13.6100629,11.515625 L13.6100629,10.5260417 L14.5660377,10.5260417 C14.6967374,10.5260417 14.8050314,10.4139404 14.8050314,10.2786458 L14.8050314,10.2786458 L14.8050314,9.78385417 C14.8050314,9.64855957 14.6967374,9.53645833 14.5660377,9.53645833 L14.5660377,9.53645833 L13.6100629,9.53645833 L13.6100629,8.546875 C13.6100629,8.4115804 13.5017689,8.29947917 13.3710692,8.29947917 L13.3710692,8.29947917 Z M6.49056604,3 C7.76066936,3 8.96678459,3.32678675 10.1089117,3.98036024 C11.103511,4.54951205 11.9214056,5.27912117 12.5625956,6.1691876 C12.227803,6.22176594 11.9085813,6.31935034 11.6097094,6.4559131 C10.960624,5.64519459 10.1880595,5.01757069 9.293969,4.57280816 C9.58855571,5.06181279 9.73584906,5.59078414 9.73584906,6.15972222 C9.73584906,7.02958623 9.41832323,7.7736726 8.78327156,8.39198134 C8.1482199,9.01029008 7.38398473,9.31944444 6.49056604,9.31944444 C5.59714735,9.31944444 4.83291217,9.01029008 4.19786051,8.39198134 C3.56280885,7.7736726 3.24528302,7.02958623 3.24528302,6.15972222 C3.24528302,5.59078414 3.39257637,5.06181279 3.68716307,4.57280816 C2.58125562,5.12293837 1.66127583,5.95283565 0.92722372,7.0625 C1.56951932,8.02640336 2.37480346,8.79399957 3.34307615,9.36528863 C4.31134883,9.93657769 5.36051213,10.2222222 6.49056604,10.2222222 C7.51788777,10.2222222 8.47835776,9.98615236 9.37197601,9.51401264 L9.392,9.502 L9.37385314,9.67637723 C9.36368501,9.79325993 9.35849057,9.91162703 9.35849057,10.03125 C9.35849057,10.1936025 9.36805871,10.3536417 9.38664314,10.5107963 C8.46215534,10.9207805 7.49642698,11.125 6.49056604,11.125 C5.22046271,11.125 4.01434748,10.7982133 2.87222035,10.1446398 C1.73009322,9.49106626 0.820979335,8.62590422 0.144878706,7.54915365 C0.0482929021,7.38458478 0,7.2223669 0,7.0625 C0,6.9026331 0.0482929021,6.74041522 0.144878706,6.57584635 C0.820979335,5.49909578 1.73009322,4.63393374 2.87222035,3.98036024 C4.01434748,3.32678675 5.22046271,3 6.49056604,3 Z M6.49056604,4.015625 C5.88690476,4.015625 5.36896339,4.22603805 4.93674191,4.64686415 C4.50452044,5.06769025 4.2884097,5.57197627 4.2884097,6.15972222 C4.2884097,6.25376157 4.32221473,6.33369502 4.3898248,6.39952257 C4.45743486,6.46535012 4.53953279,6.49826389 4.6361186,6.49826389 C4.7327044,6.49826389 4.81480234,6.46535012 4.8824124,6.39952257 C4.95002246,6.33369502 4.98382749,6.25376157 4.98382749,6.15972222 C4.98382749,5.75535301 5.13112084,5.40975839 5.42570755,5.12293837 C5.72029425,4.83611834 6.07524708,4.69270833 6.49056604,4.69270833 C6.58715184,4.69270833 6.66924978,4.65979456 6.73685984,4.59396701 C6.8044699,4.52813947 6.83827493,4.44820602 6.83827493,4.35416667 C6.83827493,4.26012731 6.8044699,4.18019387 6.73685984,4.11436632 C6.66924978,4.04853877 6.58715184,4.015625 6.49056604,4.015625 Z"
              id="icn_neueSicht" fill="#000000" fill-rule="nonzero"></path>
    </g>
</svg>
